<svg id="Layer_1" data-name="Layer 1" xmlns="http://www.w3.org/2000/svg" viewBox="0 0 1811.4 787.61"><defs><style>.cls-1{fill:none;stroke:#404343;stroke-miterlimit:10;stroke-width:5px;}.cls-2{fill:#404343;}.cls-3{fill:#398557;}.cls-4{fill:#388558;}</style></defs><title>multi-domain_ssl_certificate</title><line class="cls-1" x1="987.96" y1="233.1" x2="768.75" y2="410.68"/><path class="cls-2" d="M531.26,516.6h-4.34l-3.19-11.79h-.13l-3.18,11.79h-4.36L511.82,500H516l2.47,12.23h.15L521.75,500h3.87l3.14,12.23h.17L531.4,500h4.11Z" transform="translate(-50.73 -61.26)"/><path class="cls-2" d="M556.53,516.6h-4.35L549,504.81h-.13l-3.19,11.79h-4.36L537.09,500h4.16l2.46,12.23h.16L547,500h3.88L554,512.26h.17L556.67,500h4.11Z" transform="translate(-50.73 -61.26)"/><path class="cls-2" d="M581.79,516.6h-4.34l-3.19-11.79h-.12L571,516.6h-4.36L562.35,500h4.16L569,512.26h.16L572.28,500h3.87l3.14,12.23h.17L581.93,500H586Z" transform="translate(-50.73 -61.26)"/><path class="cls-2" d="M588.84,512.09a2.43,2.43,0,1,1-2.42,2.42A2.43,2.43,0,0,1,588.84,512.09Z" transform="translate(-50.73 -61.26)"/><path class="cls-2" d="M594.37,507.54c0-4.59,2.75-7.81,7.38-7.81,4.18,0,6.73,2.65,6.82,5.84h-3.79a2.94,2.94,0,0,0-2.85-2.56c-2.14,0-3.43,1.75-3.43,4.58v1.31c0,2.92,1.32,4.7,3.45,4.7a2.68,2.68,0,0,0,2.9-2.37h3.8c-.34,3.7-3,5.67-6.92,5.67-4.58,0-7.36-3.16-7.36-8Z" transform="translate(-50.73 -61.26)"/><path class="cls-2" d="M611.93,494.15h4.13V516.6h-4.13Z" transform="translate(-50.73 -61.26)"/><path class="cls-2" d="M634.76,507.65v1.22c0,4.83-2.69,8-7.58,8s-7.59-3.2-7.59-8v-1.21c0-4.58,2.7-7.94,7.59-7.94S634.76,503.07,634.76,507.65Zm-11,0v1.28c0,2.61,1,4.77,3.43,4.77s3.42-2.14,3.42-4.77v-1.28c0-2.7-1-4.73-3.42-4.73S623.75,505,623.75,507.65Z" transform="translate(-50.73 -61.26)"/><path class="cls-2" d="M652.65,516.6h-4v-2.42h-.19c-.52,1.3-2.05,2.67-4.78,2.67-3.39,0-5.67-2-5.67-5.87V500h4.1v9.85c0,2.74,1.55,3.49,3.18,3.49,1.84,0,3.25-1.2,3.25-3.53V500h4.12Z" transform="translate(-50.73 -61.26)"/><path class="cls-2" d="M667.14,502.45h.15v-8.3h4.13V516.6h-4V514h-.17a5,5,0,0,1-4.78,2.77c-4,0-6.35-3-6.35-7.82V507.6c0-4.73,2.39-7.79,6.35-7.79A5,5,0,0,1,667.14,502.45Zm-6.85,5.29v1.14c0,3.11,1.46,4.65,3.47,4.65,2.17,0,3.56-1.61,3.56-4.63v-1.16c0-2.9-1.4-4.64-3.59-4.64C661.75,503.1,660.29,504.63,660.29,507.74Z" transform="translate(-50.73 -61.26)"/><path class="cls-2" d="M676.84,503.21h-2.38V500h2.38v-1.66c0-3.33,1.72-4.69,5.56-4.69a14.3,14.3,0,0,1,1.8.11v2.94a6.86,6.86,0,0,0-1-.06c-1.58,0-2.36.5-2.36,2V500H684v3.18h-3.12V516.6h-4.08Z" transform="translate(-50.73 -61.26)"/><path class="cls-2" d="M687.56,494.15h4.12V516.6h-4.12Z" transform="translate(-50.73 -61.26)"/><path class="cls-2" d="M700.48,516.85c-3.23,0-5.45-1.9-5.45-5,0-3,2.06-4.87,5.9-4.87H705v-1.5a2.41,2.41,0,0,0-2.73-2.58c-1.69,0-2.66.89-2.77,2.22h-3.84c.12-2.77,1.9-5.33,6.68-5.33,3.82,0,6.72,1.78,6.72,5.64v11.2h-3.89v-2H705C704.32,515.81,702.92,516.85,700.48,516.85Zm4.5-5.68v-1.75h-3.16c-1.81,0-2.7.87-2.7,2.14,0,1.54,1.31,2.29,2.69,2.29C703.57,513.85,705,512.78,705,511.17Z" transform="translate(-50.73 -61.26)"/><path class="cls-2" d="M713,500h4.11v2.28h.17a4,4,0,0,1,3.88-2.53,7.33,7.33,0,0,1,1.31.1v3.57a7,7,0,0,0-1.63-.14c-2.7,0-3.64,1.62-3.64,3.84v9.45H713Z" transform="translate(-50.73 -61.26)"/><path class="cls-2" d="M724.26,509v-1.52c0-4.86,3-7.73,7.34-7.73,4.52,0,7.32,3.08,7.32,7.84v1.63H728.29v.45c0,2.52,1.42,4.11,3.52,4.11A3,3,0,0,0,735,511.6h3.81c-.39,2.66-2.55,5.3-7,5.3S724.26,514.06,724.26,509Zm10.67-2.39v0c0-2.14-1.29-3.77-3.29-3.77s-3.35,1.64-3.35,3.77v0Z" transform="translate(-50.73 -61.26)"/><path class="cls-2" d="M744.42,512.09a2.43,2.43,0,1,1-2.42,2.42A2.43,2.43,0,0,1,744.42,512.09Z" transform="translate(-50.73 -61.26)"/><path class="cls-2" d="M750,507.54c0-4.59,2.75-7.81,7.37-7.81,4.19,0,6.74,2.65,6.83,5.84h-3.8a2.92,2.92,0,0,0-2.84-2.56c-2.14,0-3.44,1.75-3.44,4.58v1.31c0,2.92,1.33,4.7,3.46,4.7a2.68,2.68,0,0,0,2.9-2.37h3.8c-.34,3.7-3,5.67-6.92,5.67-4.58,0-7.36-3.16-7.36-8Z" transform="translate(-50.73 -61.26)"/><path class="cls-2" d="M781.9,507.65v1.22c0,4.83-2.69,8-7.58,8s-7.59-3.2-7.59-8v-1.21c0-4.58,2.7-7.94,7.59-7.94S781.9,503.07,781.9,507.65Zm-11,0v1.28c0,2.61,1,4.77,3.43,4.77s3.43-2.14,3.43-4.77v-1.28c0-2.7-1-4.73-3.43-4.73S770.89,505,770.89,507.65Z" transform="translate(-50.73 -61.26)"/><path class="cls-2" d="M785.32,500h4v2.37h.22a4.45,4.45,0,0,1,4.35-2.64c2.54,0,4.07,1.14,4.64,2.84h.17c.55-1.4,2.26-2.84,5-2.84,3.42,0,5.4,2.2,5.4,5.52V516.6H805V506.42c0-2.11-1.14-3.22-2.89-3.22s-2.94,1.25-2.94,3.37v10h-4v-10c0-2.39-1.24-3.37-2.91-3.37s-2.92,1-2.92,3.34V516.6h-4.1Z" transform="translate(-50.73 -61.26)"/><path class="cls-2" d="M1272.09,125.64V104.31h4.3l6.07,13.77h.13l6.09-13.77H1293v21.33h-3.8V111.55H1289L1283.89,123h-2.75L1276,111.55h-.17v14.09Z" transform="translate(-50.73 -61.26)"/><path class="cls-2" d="M1311.78,125.64h-4v-2.42h-.19c-.51,1.29-2,2.67-4.78,2.67-3.39,0-5.67-2-5.67-5.88v-11h4.11v9.86c0,2.73,1.55,3.48,3.17,3.48,1.85,0,3.25-1.2,3.25-3.53v-9.81h4.13Z" transform="translate(-50.73 -61.26)"/><path class="cls-2" d="M1316,103.19h4.13v22.45H1316Z" transform="translate(-50.73 -61.26)"/><path class="cls-2" d="M1325.59,105.09h4v4h3.22v3.19h-3.22v8.17c0,1.66.7,2.16,2.41,2.16.34,0,.68,0,.87,0v3a11.51,11.51,0,0,1-1.87.14c-4.13,0-5.49-1.39-5.49-4.78v-8.7h-2.34v-3.19h2.42Z" transform="translate(-50.73 -61.26)"/><path class="cls-2" d="M1338.56,102.78a2.17,2.17,0,1,1-2.33,2.17A2.21,2.21,0,0,1,1338.56,102.78Zm-2,6.28h4.11v16.58h-4.11Z" transform="translate(-50.73 -61.26)"/><path class="cls-2" d="M1344.06,118.72v-3.66h9.84v3.66Z" transform="translate(-50.73 -61.26)"/><path class="cls-2" d="M1279.82,140.31c6.49,0,9.55,3.86,9.55,10.61s-3.11,10.72-9.55,10.72H1272V140.31Zm-3.56,17.88h3c3.55,0,5.75-1.8,5.75-7.19,0-4.41-1.53-7.24-5.75-7.24h-3Z" transform="translate(-50.73 -61.26)"/><path class="cls-2" d="M1307.07,152.69v1.21c0,4.83-2.68,8-7.57,8s-7.6-3.21-7.6-8V152.7c0-4.58,2.71-7.94,7.6-7.94S1307.07,148.11,1307.07,152.69Zm-11,0V154c0,2.61,1,4.76,3.44,4.76s3.42-2.14,3.42-4.76v-1.28c0-2.71-1.05-4.74-3.42-4.74S1296.06,150,1296.06,152.69Z" transform="translate(-50.73 -61.26)"/><path class="cls-2" d="M1310.5,145.06h4v2.38h.21a4.43,4.43,0,0,1,4.35-2.64c2.55,0,4.08,1.14,4.64,2.84h.17c.55-1.41,2.27-2.84,5.05-2.84,3.42,0,5.4,2.2,5.4,5.51v11.33h-4.11V151.45c0-2.11-1.14-3.22-2.89-3.22s-2.93,1.25-2.93,3.38v10h-4v-10c0-2.39-1.24-3.38-2.91-3.38s-2.92,1.05-2.92,3.35v10.06h-4.09Z" transform="translate(-50.73 -61.26)"/><path class="cls-2" d="M1342.92,161.89c-3.24,0-5.46-1.91-5.46-5s2.07-4.88,5.91-4.88h4.05v-1.5a2.42,2.42,0,0,0-2.74-2.58,2.45,2.45,0,0,0-2.76,2.22h-3.85c.13-2.76,1.91-5.32,6.69-5.32,3.81,0,6.72,1.78,6.72,5.64v11.2h-3.89v-2h-.17C1346.76,160.84,1345.36,161.89,1342.92,161.89Zm4.5-5.69v-1.75h-3.16c-1.81,0-2.7.88-2.7,2.14a2.4,2.4,0,0,0,2.69,2.3C1346,158.89,1347.42,157.81,1347.42,156.2Z" transform="translate(-50.73 -61.26)"/><path class="cls-2" d="M1357.62,138.78a2.17,2.17,0,1,1-2.33,2.17A2.21,2.21,0,0,1,1357.62,138.78Zm-2,6.28h4.11v16.58h-4.11Z" transform="translate(-50.73 -61.26)"/><path class="cls-2" d="M1363.93,145.06h4v2.42h.18a5.09,5.09,0,0,1,4.81-2.68c3.37,0,5.73,2.1,5.73,6.17v10.67h-4.11v-9.78c0-2.55-1.47-3.56-3.23-3.56-2.13,0-3.28,1.53-3.28,3.62v9.72h-4.1Z" transform="translate(-50.73 -61.26)"/><path class="cls-2" d="M1274.78,191.58c.14,1.65,1.62,3.12,4.42,3.12,2.59,0,4-1.19,4-2.95,0-1.5-1.07-2.27-3.28-2.77l-3.29-.76c-2.93-.66-5.41-2.32-5.41-5.89,0-4.16,3.56-6.46,8-6.46,4.58,0,7.86,2.5,7.93,6.33h-4c-.14-1.59-1.41-3-4-3-2.27,0-3.72,1.07-3.72,2.81,0,1.28,1,2.15,2.92,2.58l3.31.76c3.16.69,5.74,2.21,5.74,6,0,4.19-3.31,6.69-8.46,6.69-6.18,0-8.2-3.5-8.26-6.47Z" transform="translate(-50.73 -61.26)"/><path class="cls-2" d="M1293.64,191.58c.14,1.65,1.62,3.12,4.42,3.12,2.59,0,4-1.19,4-2.95,0-1.5-1.07-2.27-3.28-2.77l-3.29-.76c-2.93-.66-5.41-2.32-5.41-5.89,0-4.16,3.56-6.46,8-6.46,4.58,0,7.86,2.5,7.92,6.33h-4c-.14-1.59-1.41-3-4-3-2.27,0-3.72,1.07-3.72,2.81,0,1.28,1,2.15,2.92,2.58l3.31.76c3.16.69,5.74,2.21,5.74,6,0,4.19-3.32,6.69-8.46,6.69-6.18,0-8.2-3.5-8.26-6.47Z" transform="translate(-50.73 -61.26)"/><path class="cls-2" d="M1323,197.64h-13.27V176.31H1314v17.74h9Z" transform="translate(-50.73 -61.26)"/><path class="cls-2" d="M1271.15,224.58c0-4.6,2.75-7.82,7.38-7.82,4.18,0,6.73,2.66,6.83,5.85h-3.8a2.92,2.92,0,0,0-2.85-2.56c-2.14,0-3.43,1.75-3.43,4.57v1.32c0,2.92,1.33,4.7,3.45,4.7a2.7,2.7,0,0,0,2.91-2.38h3.79c-.34,3.71-3,5.68-6.92,5.68-4.58,0-7.36-3.16-7.36-8Z" transform="translate(-50.73 -61.26)"/><path class="cls-2" d="M1287.93,226V224.5c0-4.86,3-7.74,7.35-7.74,4.51,0,7.31,3.08,7.31,7.85v1.62H1292v.46c0,2.51,1.43,4.11,3.52,4.11a3,3,0,0,0,3.14-2.16h3.81c-.39,2.66-2.54,5.3-7,5.3S1287.93,231.09,1287.93,226Zm10.68-2.39v0c0-2.14-1.3-3.76-3.3-3.76s-3.35,1.64-3.35,3.76v0Z" transform="translate(-50.73 -61.26)"/><path class="cls-2" d="M1306,217.06h4.11v2.28h.18a4,4,0,0,1,3.87-2.53,7.1,7.1,0,0,1,1.31.11v3.56a7.39,7.39,0,0,0-1.62-.14c-2.7,0-3.64,1.63-3.64,3.85v9.45H1306Z" transform="translate(-50.73 -61.26)"/><path class="cls-2" d="M1320.11,213.09h4v4h3.21v3.19h-3.21v8.17c0,1.66.7,2.16,2.4,2.16.35,0,.69,0,.88,0v3a11.66,11.66,0,0,1-1.88.14c-4.12,0-5.48-1.39-5.48-4.78v-8.7h-2.35v-3.19h2.43Z" transform="translate(-50.73 -61.26)"/><path class="cls-2" d="M1333.07,210.78a2.17,2.17,0,1,1-2.32,2.17A2.2,2.2,0,0,1,1333.07,210.78Zm-2,6.28h4.11v16.58H1331Z" transform="translate(-50.73 -61.26)"/><path class="cls-2" d="M1340.67,220.25h-2.38v-3.19h2.38V215.4c0-3.32,1.72-4.68,5.56-4.68a14.46,14.46,0,0,1,1.8.11v2.93a6.86,6.86,0,0,0-1-.06c-1.58,0-2.36.5-2.36,2.05v1.31h3.2v3.19h-3.12v13.39h-4.08Z" transform="translate(-50.73 -61.26)"/><path class="cls-2" d="M1353.39,210.78a2.17,2.17,0,1,1-2.33,2.17A2.2,2.2,0,0,1,1353.39,210.78Zm-2.05,6.28h4.11v16.58h-4.11Z" transform="translate(-50.73 -61.26)"/><path class="cls-2" d="M1359,224.58c0-4.6,2.75-7.82,7.37-7.82,4.19,0,6.74,2.66,6.83,5.85h-3.8a2.92,2.92,0,0,0-2.84-2.56c-2.14,0-3.44,1.75-3.44,4.57v1.32c0,2.92,1.33,4.7,3.46,4.7a2.69,2.69,0,0,0,2.9-2.38h3.8c-.35,3.71-3,5.68-6.92,5.68-4.58,0-7.36-3.16-7.36-8Z" transform="translate(-50.73 -61.26)"/><path class="cls-2" d="M1381,233.89c-3.23,0-5.45-1.91-5.45-5s2.06-4.88,5.9-4.88h4v-1.5a2.42,2.42,0,0,0-2.73-2.58c-1.69,0-2.66.9-2.77,2.22h-3.84c.12-2.76,1.9-5.32,6.69-5.32,3.81,0,6.71,1.78,6.71,5.64v11.2h-3.89v-2h-.17C1384.86,232.84,1383.45,233.89,1381,233.89Zm4.5-5.69v-1.75h-3.15c-1.82,0-2.71.88-2.71,2.14a2.4,2.4,0,0,0,2.69,2.3C1384.11,230.89,1385.51,229.81,1385.51,228.2Z" transform="translate(-50.73 -61.26)"/><path class="cls-2" d="M1394.75,213.09h4v4H1402v3.19h-3.21v8.17c0,1.66.7,2.16,2.4,2.16.35,0,.69,0,.88,0v3a11.66,11.66,0,0,1-1.88.14c-4.12,0-5.48-1.39-5.48-4.78v-8.7h-2.35v-3.19h2.43Z" transform="translate(-50.73 -61.26)"/><path class="cls-2" d="M1404.61,226V224.5c0-4.86,3-7.74,7.34-7.74s7.31,3.08,7.31,7.85v1.62h-10.62v.46c0,2.51,1.42,4.11,3.51,4.11a3,3,0,0,0,3.14-2.16h3.82c-.4,2.66-2.55,5.3-7,5.3S1404.61,231.09,1404.61,226Zm10.67-2.39v0c0-2.14-1.3-3.76-3.3-3.76s-3.34,1.64-3.34,3.76v0Z" transform="translate(-50.73 -61.26)"/><line class="cls-1" x1="608.17" y1="476" x2="607.59" y2="719.83"/><line class="cls-1" x1="375.47" y1="473.58" x2="276.53" y2="594.12"/><line class="cls-1" x1="796.22" y1="475.37" x2="894.42" y2="595.01"/><line class="cls-1" x1="1093.78" y1="231.9" x2="1093.78" y2="411.32"/><line class="cls-1" x1="1199.6" y1="233.1" x2="1420.94" y2="411.68"/><path class="cls-2" d="M1006.78,515.43h-4.34l-3.19-11.8h-.12l-3.19,11.8h-4.36l-4.24-16.58h4.16L994,511.09h.16l3.14-12.24h3.87l3.14,12.24h.17l2.47-12.24H1011Z" transform="translate(-50.73 -61.26)"/><path class="cls-2" d="M1032.05,515.43h-4.35l-3.18-11.8h-.13l-3.19,11.8h-4.36l-4.23-16.58h4.16l2.47,12.24h.15l3.14-12.24h3.88l3.14,12.24h.17l2.47-12.24h4.11Z" transform="translate(-50.73 -61.26)"/><path class="cls-2" d="M1057.31,515.43H1053l-3.19-11.8h-.12l-3.19,11.8h-4.36l-4.23-16.58H1042l2.47,12.24h.16l3.14-12.24h3.87l3.14,12.24h.18l2.46-12.24h4.11Z" transform="translate(-50.73 -61.26)"/><path class="cls-2" d="M1064.36,510.91a2.43,2.43,0,1,1-2.42,2.43A2.44,2.44,0,0,1,1064.36,510.91Z" transform="translate(-50.73 -61.26)"/><path class="cls-2" d="M1070,500.46v-.2c0-3.6,2.87-6.57,7.42-6.57,4.29,0,7.15,2.49,7.15,6,0,2.49-1.29,4.18-3.75,6.8l-4.81,5.41V512h8.94v3.44h-14.69V512.8l7.75-8.4c1.39-1.47,2.38-2.74,2.38-4.35a2.94,2.94,0,0,0-3.16-3,3.1,3.1,0,0,0-3.23,3.16v.23Z" transform="translate(-50.73 -61.26)"/><path class="cls-2" d="M1088.39,498.85h4v2.42h.17a5.1,5.1,0,0,1,4.82-2.68c3.37,0,5.73,2.1,5.73,6.17v10.67H1099v-9.78c0-2.55-1.47-3.56-3.23-3.56-2.13,0-3.28,1.53-3.28,3.62v9.72h-4.1Z" transform="translate(-50.73 -61.26)"/><path class="cls-2" d="M1117.41,501.27h.15V493h4.13v22.45h-4v-2.56h-.17a5,5,0,0,1-4.78,2.76c-4,0-6.35-3-6.35-7.81v-1.39c0-4.74,2.4-7.8,6.35-7.8A5,5,0,0,1,1117.41,501.27Zm-6.85,5.3v1.14c0,3.11,1.46,4.64,3.47,4.64,2.17,0,3.56-1.61,3.56-4.62v-1.16c0-2.91-1.4-4.64-3.59-4.64C1112,501.93,1110.56,503.46,1110.56,506.57Z" transform="translate(-50.73 -61.26)"/><path class="cls-2" d="M1125,508.51v-3.66h9.84v3.66Z" transform="translate(-50.73 -61.26)"/><path class="cls-2" d="M1137.47,507.8v-1.51c0-4.86,3-7.74,7.34-7.74,4.52,0,7.32,3.08,7.32,7.85V508H1141.5v.46c0,2.51,1.42,4.11,3.52,4.11a3,3,0,0,0,3.14-2.16H1152c-.39,2.66-2.55,5.3-7,5.3S1137.47,512.88,1137.47,507.8Zm10.67-2.39v0c0-2.14-1.3-3.76-3.3-3.76s-3.34,1.64-3.34,3.76v0Z" transform="translate(-50.73 -61.26)"/><path class="cls-2" d="M1161.52,509.79h-.11l-3.36,5.64h-4.41l5.25-8.3-5.3-8.28h4.77l3.28,5.64h.11l3.28-5.64h4.55l-5.42,8.28,5.37,8.3h-4.62Z" transform="translate(-50.73 -61.26)"/><path class="cls-2" d="M1176.42,515.68c-3.23,0-5.45-1.91-5.45-5,0-3,2.06-4.88,5.91-4.88h4v-1.5a2.42,2.42,0,0,0-2.73-2.58c-1.69,0-2.66.9-2.77,2.22h-3.84c.12-2.76,1.91-5.32,6.69-5.32,3.81,0,6.72,1.78,6.72,5.64v11.2h-3.9v-2h-.17C1180.27,514.63,1178.86,515.68,1176.42,515.68Zm4.5-5.69v-1.75h-3.15c-1.82,0-2.71.88-2.71,2.14a2.41,2.41,0,0,0,2.69,2.3C1179.52,512.68,1180.92,511.6,1180.92,510Z" transform="translate(-50.73 -61.26)"/><path class="cls-2" d="M1188.92,498.85h4v2.38h.22a4.42,4.42,0,0,1,4.35-2.64c2.54,0,4.07,1.14,4.64,2.84h.17c.54-1.41,2.26-2.84,5-2.84,3.43,0,5.41,2.2,5.41,5.51v11.33h-4.11V505.24c0-2.11-1.14-3.22-2.89-3.22s-2.94,1.25-2.94,3.38v10h-4v-10c0-2.39-1.23-3.38-2.9-3.38s-2.92,1.05-2.92,3.35v10.06h-4.1Z" transform="translate(-50.73 -61.26)"/><path class="cls-2" d="M1221.06,513h-.17v7.89h-4.12V498.85h4v2.47h.18a5.17,5.17,0,0,1,4.79-2.69c3.69,0,6.25,2.77,6.25,7.78v1.43c0,5-2.54,7.81-6.31,7.81A5,5,0,0,1,1221.06,513Zm6.77-5.39v-1.1c0-3-1.3-4.64-3.42-4.64s-3.55,1.75-3.55,4.63v1.11c0,2.94,1.41,4.72,3.59,4.72C1226.45,512.37,1227.83,510.74,1227.83,507.65Z" transform="translate(-50.73 -61.26)"/><path class="cls-2" d="M1235.59,493h4.13v22.45h-4.13Z" transform="translate(-50.73 -61.26)"/><path class="cls-2" d="M1243.25,507.8v-1.51c0-4.86,3-7.74,7.34-7.74,4.52,0,7.32,3.08,7.32,7.85V508h-10.63v.46c0,2.51,1.42,4.11,3.52,4.11a3,3,0,0,0,3.14-2.16h3.81c-.39,2.66-2.55,5.3-7,5.3S1243.25,512.88,1243.25,507.8Zm10.67-2.39v0c0-2.14-1.29-3.76-3.29-3.76s-3.35,1.64-3.35,3.76v0Z" transform="translate(-50.73 -61.26)"/><path class="cls-2" d="M1263.41,510.91a2.43,2.43,0,1,1-2.42,2.43A2.44,2.44,0,0,1,1263.41,510.91Z" transform="translate(-50.73 -61.26)"/><path class="cls-2" d="M1268.94,506.37c0-4.6,2.75-7.82,7.37-7.82,4.19,0,6.74,2.66,6.83,5.85h-3.8a2.91,2.91,0,0,0-2.84-2.56c-2.14,0-3.44,1.75-3.44,4.57v1.32c0,2.92,1.33,4.7,3.46,4.7a2.69,2.69,0,0,0,2.9-2.38h3.8c-.34,3.71-3,5.68-6.92,5.68-4.58,0-7.36-3.16-7.36-8Z" transform="translate(-50.73 -61.26)"/><path class="cls-2" d="M1300.89,506.48v1.21c0,4.83-2.69,8-7.58,8s-7.59-3.21-7.59-8v-1.22c0-4.58,2.7-7.94,7.59-7.94S1300.89,501.9,1300.89,506.48Zm-11,0v1.28c0,2.61,1,4.76,3.43,4.76s3.43-2.14,3.43-4.76v-1.28c0-2.71-1-4.74-3.43-4.74S1289.88,503.79,1289.88,506.48Z" transform="translate(-50.73 -61.26)"/><path class="cls-2" d="M1304.31,498.85h4v2.38h.22a4.43,4.43,0,0,1,4.35-2.64c2.54,0,4.07,1.14,4.64,2.84h.17c.55-1.41,2.26-2.84,5-2.84,3.42,0,5.4,2.2,5.4,5.51v11.33H1324V505.24c0-2.11-1.14-3.22-2.89-3.22s-2.94,1.25-2.94,3.38v10h-4v-10c0-2.39-1.24-3.38-2.91-3.38s-2.92,1.05-2.92,3.35v10.06h-4.1Z" transform="translate(-50.73 -61.26)"/><path class="cls-2" d="M1510.19,515.43h-4.35l-3.18-11.8h-.13l-3.19,11.8H1495l-4.23-16.58h4.16l2.46,12.24h.16l3.14-12.24h3.88l3.14,12.24h.17l2.47-12.24h4.11Z" transform="translate(-50.73 -61.26)"/><path class="cls-2" d="M1535.45,515.43h-4.34l-3.19-11.8h-.12l-3.19,11.8h-4.36L1516,498.85h4.16l2.47,12.24h.16l3.14-12.24h3.87l3.14,12.24h.17l2.47-12.24h4.11Z" transform="translate(-50.73 -61.26)"/><path class="cls-2" d="M1560.72,515.43h-4.35l-3.18-11.8h-.13l-3.19,11.8h-4.36l-4.23-16.58h4.16l2.47,12.24h.15l3.14-12.24h3.88l3.14,12.24h.17l2.47-12.24H1565Z" transform="translate(-50.73 -61.26)"/><path class="cls-2" d="M1567.76,510.91a2.43,2.43,0,1,1-2.42,2.43A2.45,2.45,0,0,1,1567.76,510.91Z" transform="translate(-50.73 -61.26)"/><path class="cls-2" d="M1578.48,502.82h2.19c2,0,3.41-1.25,3.39-3s-1.33-2.84-3.33-2.84a3.13,3.13,0,0,0-3.32,2.94h-3.94c.09-3.41,2.67-6.21,7.4-6.21,4.24,0,7.29,2.32,7.35,5.55a4.81,4.81,0,0,1-3.86,4.92v.16a5,5,0,0,1,4.55,5.14c0,3.86-3.68,6.39-8.21,6.39-5.12,0-7.56-2.94-7.64-6.36H1577c.17,1.72,1.53,3,3.86,3s3.89-1.41,3.88-3.28-1.43-3.19-3.91-3.19h-2.3Z" transform="translate(-50.73 -61.26)"/><path class="cls-2" d="M1592.16,498.85h4.1v2.28h.18a4,4,0,0,1,3.87-2.53,7.1,7.1,0,0,1,1.31.11v3.56a7.39,7.39,0,0,0-1.62-.14c-2.7,0-3.64,1.63-3.64,3.85v9.45h-4.2Z" transform="translate(-50.73 -61.26)"/><path class="cls-2" d="M1614.51,501.27h.16V493h4.13v22.45h-4v-2.56h-.17a5,5,0,0,1-4.78,2.76c-4,0-6.35-3-6.35-7.81v-1.39c0-4.74,2.39-7.8,6.35-7.8A5,5,0,0,1,1614.51,501.27Zm-6.84,5.3v1.14c0,3.11,1.45,4.64,3.47,4.64s3.56-1.61,3.56-4.62v-1.16c0-2.91-1.4-4.64-3.59-4.64C1609.12,501.93,1607.67,503.46,1607.67,506.57Z" transform="translate(-50.73 -61.26)"/><path class="cls-2" d="M1622.12,508.51v-3.66H1632v3.66Z" transform="translate(-50.73 -61.26)"/><path class="cls-2" d="M1634.58,507.8v-1.51c0-4.86,3-7.74,7.34-7.74,4.52,0,7.31,3.08,7.31,7.85V508h-10.62v.46c0,2.51,1.42,4.11,3.51,4.11a3,3,0,0,0,3.14-2.16h3.82c-.39,2.66-2.55,5.3-7,5.3S1634.58,512.88,1634.58,507.8Zm10.67-2.39v0c0-2.14-1.3-3.76-3.3-3.76s-3.34,1.64-3.34,3.76v0Z" transform="translate(-50.73 -61.26)"/><path class="cls-2" d="M1658.62,509.79h-.11l-3.35,5.64h-4.41l5.25-8.3-5.3-8.28h4.77l3.28,5.64h.11l3.28-5.64h4.55l-5.43,8.28,5.38,8.3H1662Z" transform="translate(-50.73 -61.26)"/><path class="cls-2" d="M1673.53,515.68c-3.23,0-5.45-1.91-5.45-5,0-3,2.06-4.88,5.9-4.88h4v-1.5a2.42,2.42,0,0,0-2.73-2.58c-1.69,0-2.66.9-2.77,2.22h-3.84c.12-2.76,1.9-5.32,6.68-5.32,3.82,0,6.72,1.78,6.72,5.64v11.2h-3.89v-2H1678C1677.37,514.63,1676,515.68,1673.53,515.68ZM1678,510v-1.75h-3.16c-1.81,0-2.7.88-2.7,2.14a2.4,2.4,0,0,0,2.69,2.3C1676.62,512.68,1678,511.6,1678,510Z" transform="translate(-50.73 -61.26)"/><path class="cls-2" d="M1686,498.85h4v2.38h.22a4.42,4.42,0,0,1,4.34-2.64c2.55,0,4.08,1.14,4.64,2.84h.18c.54-1.41,2.26-2.84,5-2.84,3.42,0,5.41,2.2,5.41,5.51v11.33h-4.11V505.24c0-2.11-1.14-3.22-2.89-3.22s-2.94,1.25-2.94,3.38v10h-4v-10c0-2.39-1.23-3.38-2.9-3.38s-2.93,1.05-2.93,3.35v10.06H1686Z" transform="translate(-50.73 -61.26)"/><path class="cls-2" d="M1718.17,513H1718v7.89h-4.13V498.85h4.05v2.47h.17a5.19,5.19,0,0,1,4.8-2.69c3.69,0,6.25,2.77,6.25,7.78v1.43c0,5-2.55,7.81-6.31,7.81A5,5,0,0,1,1718.17,513Zm6.77-5.39v-1.1c0-3-1.3-4.64-3.43-4.64s-3.54,1.75-3.54,4.63v1.11c0,2.94,1.4,4.72,3.59,4.72C1723.56,512.37,1724.94,510.74,1724.94,507.65Z" transform="translate(-50.73 -61.26)"/><path class="cls-2" d="M1732.7,493h4.13v22.45h-4.13Z" transform="translate(-50.73 -61.26)"/><path class="cls-2" d="M1740.36,507.8v-1.51c0-4.86,3-7.74,7.34-7.74,4.52,0,7.31,3.08,7.31,7.85V508h-10.62v.46c0,2.51,1.42,4.11,3.52,4.11a3,3,0,0,0,3.14-2.16h3.81c-.39,2.66-2.55,5.3-7,5.3S1740.36,512.88,1740.36,507.8Zm10.67-2.39v0c0-2.14-1.3-3.76-3.3-3.76s-3.34,1.64-3.34,3.76v0Z" transform="translate(-50.73 -61.26)"/><path class="cls-2" d="M1760.51,510.91a2.43,2.43,0,1,1-2.42,2.43A2.45,2.45,0,0,1,1760.51,510.91Z" transform="translate(-50.73 -61.26)"/><path class="cls-2" d="M1766.05,506.37c0-4.6,2.75-7.82,7.37-7.82,4.19,0,6.74,2.66,6.83,5.85h-3.8a2.92,2.92,0,0,0-2.84-2.56c-2.14,0-3.44,1.75-3.44,4.57v1.32c0,2.92,1.33,4.7,3.45,4.7a2.7,2.7,0,0,0,2.91-2.38h3.8c-.35,3.71-3,5.68-6.92,5.68-4.58,0-7.36-3.16-7.36-8Z" transform="translate(-50.73 -61.26)"/><path class="cls-2" d="M1798,506.48v1.21c0,4.83-2.69,8-7.58,8s-7.59-3.21-7.59-8v-1.22c0-4.58,2.7-7.94,7.59-7.94S1798,501.9,1798,506.48Zm-11,0v1.28c0,2.61,1,4.76,3.44,4.76s3.42-2.14,3.42-4.76v-1.28c0-2.71-1-4.74-3.42-4.74S1787,503.79,1787,506.48Z" transform="translate(-50.73 -61.26)"/><path class="cls-2" d="M1801.42,498.85h4v2.38h.22a4.42,4.42,0,0,1,4.34-2.64c2.55,0,4.08,1.14,4.64,2.84h.18c.54-1.41,2.26-2.84,5-2.84,3.42,0,5.41,2.2,5.41,5.51v11.33h-4.11V505.24c0-2.11-1.14-3.22-2.89-3.22s-2.94,1.25-2.94,3.38v10h-4v-10c0-2.39-1.23-3.38-2.9-3.38s-2.93,1.05-2.93,3.35v10.06h-4.09Z" transform="translate(-50.73 -61.26)"/><path class="cls-2" d="M132.56,689.55c0-4.6,2.75-7.81,7.38-7.81,4.18,0,6.73,2.65,6.82,5.84H143a2.93,2.93,0,0,0-2.85-2.56c-2.14,0-3.43,1.75-3.43,4.57v1.32c0,2.92,1.32,4.7,3.45,4.7a2.68,2.68,0,0,0,2.9-2.37h3.8c-.34,3.7-3,5.67-6.92,5.67-4.58,0-7.36-3.16-7.36-8Z" transform="translate(-50.73 -61.26)"/><path class="cls-2" d="M164.51,689.66v1.22c0,4.82-2.68,8-7.57,8s-7.6-3.21-7.6-8v-1.22c0-4.58,2.7-7.93,7.6-7.93S164.51,685.08,164.51,689.66Zm-11,0v1.28c0,2.61,1,4.76,3.44,4.76s3.42-2.14,3.42-4.76v-1.28c0-2.71-1.05-4.74-3.42-4.74S153.5,687,153.5,689.66Z" transform="translate(-50.73 -61.26)"/><path class="cls-2" d="M167.94,682h4v2.38h.21a4.43,4.43,0,0,1,4.35-2.64c2.54,0,4.08,1.14,4.64,2.84h.17c.55-1.41,2.27-2.84,5.05-2.84,3.42,0,5.4,2.2,5.4,5.51v11.33h-4.11V688.42c0-2.11-1.14-3.22-2.89-3.22s-2.93,1.25-2.93,3.38v10h-4v-10c0-2.39-1.24-3.38-2.91-3.38s-2.92,1-2.92,3.35v10.06h-4.09Z" transform="translate(-50.73 -61.26)"/><path class="cls-2" d="M195.76,682h4v2.38H200a4.43,4.43,0,0,1,4.35-2.64c2.54,0,4.07,1.14,4.64,2.84h.17c.55-1.41,2.26-2.84,5.05-2.84,3.42,0,5.4,2.2,5.4,5.51v11.33h-4.11V688.42c0-2.11-1.14-3.22-2.89-3.22s-2.94,1.25-2.94,3.38v10h-4v-10c0-2.39-1.24-3.38-2.91-3.38s-2.92,1-2.92,3.35v10.06h-4.1Z" transform="translate(-50.73 -61.26)"/><path class="cls-2" d="M238.06,698.61h-4v-2.42h-.18c-.52,1.3-2.05,2.67-4.78,2.67-3.39,0-5.68-2-5.68-5.87V682h4.11v9.86c0,2.74,1.55,3.49,3.18,3.49,1.84,0,3.25-1.21,3.25-3.54V682h4.12Z" transform="translate(-50.73 -61.26)"/><path class="cls-2" d="M242.14,682h4v2.42h.17a5.1,5.1,0,0,1,4.81-2.68c3.38,0,5.74,2.11,5.74,6.17v10.67h-4.11v-9.78c0-2.55-1.47-3.56-3.24-3.56-2.12,0-3.28,1.53-3.28,3.62v9.72h-4.09Z" transform="translate(-50.73 -61.26)"/><path class="cls-2" d="M263,675.75a2.17,2.17,0,1,1-2.33,2.17A2.21,2.21,0,0,1,263,675.75ZM260.9,682H265v16.58H260.9Z" transform="translate(-50.73 -61.26)"/><path class="cls-2" d="M270.42,678.06h4v4h3.22v3.19h-3.22v8.17c0,1.66.7,2.16,2.41,2.16.34,0,.68,0,.87,0v3a10.45,10.45,0,0,1-1.87.14c-4.13,0-5.49-1.39-5.49-4.78v-8.7H268V682h2.42Z" transform="translate(-50.73 -61.26)"/><path class="cls-2" d="M290.48,698.14l-.42,1.14c-1.44,3.81-3.44,5.14-7,5.14a11.62,11.62,0,0,1-2.09-.17v-3a8.75,8.75,0,0,0,1.34.1c1.87,0,2.73-.61,3-2.14l.16-.6L279.72,682h4.54l3.53,12.86H288L291.56,682h4.36C294.76,685.78,290.51,698.05,290.48,698.14Z" transform="translate(-50.73 -61.26)"/><path class="cls-2" d="M298.22,694.09a2.43,2.43,0,1,1-2.43,2.43A2.44,2.44,0,0,1,298.22,694.09Z" transform="translate(-50.73 -61.26)"/><path class="cls-2" d="M303.75,689.55c0-4.6,2.75-7.81,7.37-7.81,4.19,0,6.74,2.65,6.83,5.84h-3.8a2.91,2.91,0,0,0-2.84-2.56c-2.14,0-3.44,1.75-3.44,4.57v1.32c0,2.92,1.33,4.7,3.46,4.7a2.69,2.69,0,0,0,2.9-2.37H318c-.34,3.7-3,5.67-6.92,5.67-4.58,0-7.36-3.16-7.36-8Z" transform="translate(-50.73 -61.26)"/><path class="cls-2" d="M321.31,676.16h4.13v22.45h-4.13Z" transform="translate(-50.73 -61.26)"/><path class="cls-2" d="M344.14,689.66v1.22c0,4.82-2.69,8-7.58,8s-7.59-3.21-7.59-8v-1.22c0-4.58,2.7-7.93,7.59-7.93S344.14,685.08,344.14,689.66Zm-11,0v1.28c0,2.61,1,4.76,3.44,4.76s3.42-2.14,3.42-4.76v-1.28c0-2.71-1-4.74-3.42-4.74S333.12,687,333.12,689.66Z" transform="translate(-50.73 -61.26)"/><path class="cls-2" d="M362,698.61h-4v-2.42h-.18c-.52,1.3-2.05,2.67-4.79,2.67-3.39,0-5.67-2-5.67-5.87V682h4.11v9.86c0,2.74,1.55,3.49,3.17,3.49,1.85,0,3.25-1.21,3.25-3.54V682H362Z" transform="translate(-50.73 -61.26)"/><path class="cls-2" d="M376.51,684.45h.16v-8.29h4.12v22.45h-4v-2.56h-.17a5,5,0,0,1-4.79,2.76c-4,0-6.34-3-6.34-7.81v-1.39c0-4.73,2.39-7.8,6.34-7.8A5,5,0,0,1,376.51,684.45Zm-6.84,5.3v1.14c0,3.11,1.45,4.64,3.47,4.64,2.17,0,3.56-1.61,3.56-4.62v-1.16c0-2.91-1.41-4.64-3.59-4.64C371.12,685.11,369.67,686.64,369.67,689.75Z" transform="translate(-50.73 -61.26)"/><path class="cls-2" d="M386.22,685.22h-2.38V682h2.38v-1.65c0-3.33,1.72-4.69,5.56-4.69a14.46,14.46,0,0,1,1.8.11v2.94a5.4,5.4,0,0,0-1-.07c-1.58,0-2.36.5-2.36,2.05V682h3.2v3.19h-3.13v13.39h-4.07Z" transform="translate(-50.73 -61.26)"/><path class="cls-2" d="M396.94,676.16h4.12v22.45h-4.12Z" transform="translate(-50.73 -61.26)"/><path class="cls-2" d="M409.86,698.86c-3.24,0-5.46-1.91-5.46-5s2.07-4.88,5.91-4.88h4.05v-1.5a2.41,2.41,0,0,0-2.74-2.57c-1.68,0-2.65.89-2.76,2.21H405c.13-2.76,1.91-5.32,6.69-5.32,3.81,0,6.72,1.78,6.72,5.64v11.2h-3.89v-2h-.17C413.7,697.81,412.29,698.86,409.86,698.86Zm4.5-5.69v-1.75H411.2c-1.81,0-2.7.88-2.7,2.14a2.4,2.4,0,0,0,2.69,2.3C413,695.86,414.36,694.78,414.36,693.17Z" transform="translate(-50.73 -61.26)"/><path class="cls-2" d="M422.36,682h4.11v2.28h.17a4,4,0,0,1,3.87-2.53,7.22,7.22,0,0,1,1.32.11v3.56a7.55,7.55,0,0,0-1.63-.14c-2.7,0-3.64,1.63-3.64,3.85v9.45h-4.2Z" transform="translate(-50.73 -61.26)"/><path class="cls-2" d="M433.64,691v-1.52c0-4.86,3-7.73,7.34-7.73,4.52,0,7.31,3.07,7.31,7.84v1.62H437.67v.46c0,2.51,1.42,4.11,3.52,4.11a3,3,0,0,0,3.14-2.16h3.81c-.39,2.66-2.55,5.3-7,5.3S433.64,696.06,433.64,691Zm10.67-2.4v0c0-2.14-1.3-3.76-3.3-3.76s-3.34,1.64-3.34,3.76v0Z" transform="translate(-50.73 -61.26)"/><path class="cls-2" d="M453.79,694.09a2.43,2.43,0,1,1-2.42,2.43A2.45,2.45,0,0,1,453.79,694.09Z" transform="translate(-50.73 -61.26)"/><path class="cls-2" d="M459.33,689.55c0-4.6,2.75-7.81,7.37-7.81,4.19,0,6.74,2.65,6.83,5.84h-3.8a2.92,2.92,0,0,0-2.84-2.56c-2.14,0-3.44,1.75-3.44,4.57v1.32c0,2.92,1.33,4.7,3.45,4.7a2.69,2.69,0,0,0,2.91-2.37h3.8c-.35,3.7-3,5.67-6.92,5.67-4.58,0-7.36-3.16-7.36-8Z" transform="translate(-50.73 -61.26)"/><path class="cls-2" d="M491.28,689.66v1.22c0,4.82-2.69,8-7.58,8s-7.59-3.21-7.59-8v-1.22c0-4.58,2.7-7.93,7.59-7.93S491.28,685.08,491.28,689.66Zm-11,0v1.28c0,2.61,1,4.76,3.44,4.76s3.42-2.14,3.42-4.76v-1.28c0-2.71-1-4.74-3.42-4.74S480.26,687,480.26,689.66Z" transform="translate(-50.73 -61.26)"/><path class="cls-2" d="M494.7,682h4v2.38h.22a4.42,4.42,0,0,1,4.34-2.64c2.55,0,4.08,1.14,4.64,2.84h.18c.54-1.41,2.26-2.84,5-2.84,3.42,0,5.41,2.2,5.41,5.51v11.33h-4.11V688.42c0-2.11-1.14-3.22-2.89-3.22s-2.94,1.25-2.94,3.38v10h-4v-10c0-2.39-1.23-3.38-2.9-3.38s-2.93,1-2.93,3.35v10.06H494.7Z" transform="translate(-50.73 -61.26)"/><rect class="cls-1" x="2.5" y="593.46" width="492.99" height="65.29" rx="12" ry="12"/><path class="cls-2" d="M543.92,822h-.15v2.56H539.7V802.12h4.13v8.28H544a5.15,5.15,0,0,1,4.77-2.62c3.76,0,6.31,2.7,6.31,7.76V817c0,5-2.49,7.79-6.33,7.79A5.05,5.05,0,0,1,543.92,822Zm6.94-5.16v-1.14c0-3-1.39-4.64-3.41-4.64-2.22,0-3.65,1.58-3.65,4.64v1.13c0,3.06,1.42,4.67,3.65,4.67C549.47,821.51,550.86,819.89,550.86,816.85Z" transform="translate(-50.73 -61.26)"/><path class="cls-2" d="M558.63,802.12h4.12v22.45h-4.12Z" transform="translate(-50.73 -61.26)"/><path class="cls-2" d="M581.45,815.62v1.22c0,4.83-2.68,8-7.57,8s-7.6-3.2-7.6-8v-1.21c0-4.58,2.7-7.94,7.6-7.94S581.45,811,581.45,815.62Zm-11,0v1.28c0,2.61,1,4.77,3.44,4.77s3.42-2.14,3.42-4.77v-1.28c0-2.7-1-4.73-3.42-4.73S570.44,812.93,570.44,815.62Z" transform="translate(-50.73 -61.26)"/><path class="cls-2" d="M595.42,824.1v-2.35h-.17a4.91,4.91,0,0,1-4.67,2.6c-3.77,0-6.33-2.7-6.33-7.79v-1c0-5,2.55-7.75,6.33-7.75a5,5,0,0,1,4.72,2.65h.17V808h4.06v16.37c0,4.53-3.95,6.27-7.7,6.27-4.77,0-7-2.27-7.22-5h4c.27,1.18,1.49,2,3.3,2A3.23,3.23,0,0,0,595.42,824.1Zm-6.95-8.43v1c0,3,1.33,4.62,3.51,4.62s3.44-1.67,3.44-4.62v-1c0-2.92-1.37-4.61-3.44-4.61S588.47,812.68,588.47,815.67Z" transform="translate(-50.73 -61.26)"/><path class="cls-2" d="M605.77,820.06a2.43,2.43,0,1,1-2.43,2.42A2.43,2.43,0,0,1,605.77,820.06Z" transform="translate(-50.73 -61.26)"/><path class="cls-2" d="M611.3,815.51c0-4.59,2.75-7.81,7.37-7.81,4.19,0,6.74,2.65,6.83,5.84h-3.8a2.93,2.93,0,0,0-2.84-2.56c-2.14,0-3.44,1.75-3.44,4.58v1.31c0,2.92,1.33,4.7,3.46,4.7a2.69,2.69,0,0,0,2.9-2.37h3.8c-.35,3.7-3,5.67-6.92,5.67-4.58,0-7.36-3.16-7.36-8Z" transform="translate(-50.73 -61.26)"/><path class="cls-2" d="M628.86,802.12H633v22.45h-4.12Z" transform="translate(-50.73 -61.26)"/><path class="cls-2" d="M651.69,815.62v1.22c0,4.83-2.69,8-7.58,8s-7.59-3.2-7.59-8v-1.21c0-4.58,2.7-7.94,7.59-7.94S651.69,811,651.69,815.62Zm-11,0v1.28c0,2.61,1,4.77,3.44,4.77s3.42-2.14,3.42-4.77v-1.28c0-2.7-1-4.73-3.42-4.73S640.67,812.93,640.67,815.62Z" transform="translate(-50.73 -61.26)"/><path class="cls-2" d="M669.58,824.57h-4v-2.42h-.18c-.52,1.3-2,2.67-4.79,2.67-3.39,0-5.67-2-5.67-5.87V808H659v9.85c0,2.74,1.55,3.49,3.17,3.49,1.85,0,3.25-1.2,3.25-3.53V808h4.13Z" transform="translate(-50.73 -61.26)"/><path class="cls-2" d="M684.06,810.42h.16v-8.3h4.12v22.45h-4V822h-.17a5,5,0,0,1-4.79,2.77c-4,0-6.34-3-6.34-7.82v-1.39c0-4.73,2.39-7.79,6.34-7.79A5,5,0,0,1,684.06,810.42Zm-6.84,5.29v1.14c0,3.11,1.45,4.65,3.47,4.65s3.56-1.61,3.56-4.63v-1.16c0-2.9-1.41-4.64-3.59-4.64C678.67,811.07,677.22,812.6,677.22,815.71Z" transform="translate(-50.73 -61.26)"/><path class="cls-2" d="M693.77,811.18h-2.38V808h2.38v-1.66c0-3.33,1.71-4.69,5.56-4.69a14.46,14.46,0,0,1,1.8.11v2.94a6.86,6.86,0,0,0-1-.06c-1.58,0-2.36.5-2.36,2V808H701v3.18h-3.13v13.39h-4.07Z" transform="translate(-50.73 -61.26)"/><path class="cls-2" d="M704.48,802.12h4.13v22.45h-4.13Z" transform="translate(-50.73 -61.26)"/><path class="cls-2" d="M717.41,824.82c-3.24,0-5.46-1.9-5.46-5,0-3,2.07-4.87,5.91-4.87h4v-1.5a2.42,2.42,0,0,0-2.74-2.58c-1.69,0-2.65.89-2.76,2.22h-3.85c.13-2.77,1.91-5.33,6.69-5.33,3.81,0,6.72,1.78,6.72,5.64v11.2h-3.89v-2h-.17C721.25,823.78,719.84,824.82,717.41,824.82Zm4.5-5.68v-1.75h-3.16c-1.81,0-2.7.87-2.7,2.14a2.4,2.4,0,0,0,2.68,2.29C720.5,821.82,721.91,820.75,721.91,819.14Z" transform="translate(-50.73 -61.26)"/><path class="cls-2" d="M729.91,808H734v2.28h.17a4,4,0,0,1,3.87-2.53,7.38,7.38,0,0,1,1.32.1v3.57a7,7,0,0,0-1.63-.14c-2.7,0-3.64,1.62-3.64,3.84v9.45h-4.2Z" transform="translate(-50.73 -61.26)"/><path class="cls-2" d="M741.19,817v-1.52c0-4.86,3-7.73,7.34-7.73,4.52,0,7.31,3.08,7.31,7.84v1.63H745.22v.45c0,2.52,1.42,4.11,3.51,4.11a3,3,0,0,0,3.15-2.16h3.81c-.39,2.66-2.55,5.3-7,5.3S741.19,822,741.19,817Zm10.67-2.39v0c0-2.14-1.3-3.77-3.3-3.77s-3.34,1.64-3.34,3.77v0Z" transform="translate(-50.73 -61.26)"/><path class="cls-2" d="M761.34,820.06a2.43,2.43,0,1,1-2.42,2.42A2.44,2.44,0,0,1,761.34,820.06Z" transform="translate(-50.73 -61.26)"/><path class="cls-2" d="M766.88,815.51c0-4.59,2.75-7.81,7.37-7.81,4.19,0,6.73,2.65,6.83,5.84h-3.8a2.93,2.93,0,0,0-2.84-2.56c-2.14,0-3.44,1.75-3.44,4.58v1.31c0,2.92,1.33,4.7,3.45,4.7a2.69,2.69,0,0,0,2.91-2.37h3.8c-.35,3.7-3,5.67-6.93,5.67-4.57,0-7.35-3.16-7.35-8Z" transform="translate(-50.73 -61.26)"/><path class="cls-2" d="M798.83,815.62v1.22c0,4.83-2.69,8-7.58,8s-7.59-3.2-7.59-8v-1.21c0-4.58,2.7-7.94,7.59-7.94S798.83,811,798.83,815.62Zm-11,0v1.28c0,2.61,1,4.77,3.44,4.77s3.42-2.14,3.42-4.77v-1.28c0-2.7-1-4.73-3.42-4.73S787.81,812.93,787.81,815.62Z" transform="translate(-50.73 -61.26)"/><path class="cls-2" d="M802.25,808h4v2.37h.22a4.43,4.43,0,0,1,4.34-2.64c2.55,0,4.08,1.14,4.64,2.84h.18c.54-1.4,2.26-2.84,5-2.84,3.42,0,5.41,2.2,5.41,5.52v11.32H822V814.39c0-2.11-1.14-3.22-2.89-3.22s-2.94,1.25-2.94,3.37v10h-4v-10c0-2.39-1.23-3.37-2.9-3.37s-2.93,1-2.93,3.34v10.06h-4.09Z" transform="translate(-50.73 -61.26)"/><path class="cls-2" d="M881.64,684.45h.15v-8.29h4.13v22.45h-4v-2.56h-.17a5,5,0,0,1-4.78,2.76c-4,0-6.35-3-6.35-7.81v-1.39c0-4.73,2.39-7.8,6.35-7.8A5,5,0,0,1,881.64,684.45Zm-6.85,5.3v1.14c0,3.11,1.46,4.64,3.47,4.64,2.17,0,3.56-1.61,3.56-4.62v-1.16c0-2.91-1.4-4.64-3.59-4.64C876.25,685.11,874.79,686.64,874.79,689.75Z" transform="translate(-50.73 -61.26)"/><path class="cls-2" d="M889.39,691v-1.52c0-4.86,3-7.73,7.34-7.73,4.52,0,7.31,3.07,7.31,7.84v1.62H893.42v.46c0,2.51,1.42,4.11,3.51,4.11a3,3,0,0,0,3.14-2.16h3.82c-.39,2.66-2.55,5.3-7,5.3S889.39,696.06,889.39,691Zm10.67-2.4v0c0-2.14-1.3-3.76-3.3-3.76s-3.34,1.64-3.34,3.76v0Z" transform="translate(-50.73 -61.26)"/><path class="cls-2" d="M905.39,682h4.39l3.37,12.49h.16L917,682h4.24l-5.75,16.58h-4.68Z" transform="translate(-50.73 -61.26)"/><path class="cls-2" d="M922.46,691v-1.52c0-4.86,3-7.73,7.35-7.73,4.51,0,7.31,3.07,7.31,7.84v1.62H926.5v.46c0,2.51,1.42,4.11,3.51,4.11a3,3,0,0,0,3.14-2.16H937c-.39,2.66-2.54,5.3-7,5.3S922.46,696.06,922.46,691Zm10.68-2.4v0c0-2.14-1.3-3.76-3.3-3.76s-3.34,1.64-3.34,3.76v0Z" transform="translate(-50.73 -61.26)"/><path class="cls-2" d="M940.6,676.16h4.13v22.45H940.6Z" transform="translate(-50.73 -61.26)"/><path class="cls-2" d="M963.43,689.66v1.22c0,4.82-2.68,8-7.58,8s-7.59-3.21-7.59-8v-1.22c0-4.58,2.7-7.93,7.59-7.93S963.43,685.08,963.43,689.66Zm-11,0v1.28c0,2.61,1,4.76,3.43,4.76s3.43-2.14,3.43-4.76v-1.28c0-2.71-1-4.74-3.43-4.74S952.42,687,952.42,689.66Z" transform="translate(-50.73 -61.26)"/><path class="cls-2" d="M971.17,696.22H971v7.89h-4.13V682h4v2.47h.17a5.18,5.18,0,0,1,4.8-2.69c3.68,0,6.25,2.77,6.25,7.78V691c0,5-2.55,7.81-6.32,7.81A5,5,0,0,1,971.17,696.22Zm6.76-5.39v-1.09c0-3-1.29-4.65-3.42-4.65s-3.55,1.75-3.55,4.63v1.11c0,2.94,1.41,4.72,3.6,4.72C976.56,695.55,977.93,693.92,977.93,690.83Z" transform="translate(-50.73 -61.26)"/><path class="cls-2" d="M984.92,691v-1.52c0-4.86,3-7.73,7.34-7.73,4.52,0,7.31,3.07,7.31,7.84v1.62H989v.46c0,2.51,1.42,4.11,3.51,4.11a3,3,0,0,0,3.15-2.16h3.81c-.39,2.66-2.55,5.3-7,5.3S984.92,696.06,984.92,691Zm10.67-2.4v0c0-2.14-1.3-3.76-3.3-3.76s-3.34,1.64-3.34,3.76v0Z" transform="translate(-50.73 -61.26)"/><path class="cls-2" d="M1003,682h4.11v2.28h.17a4,4,0,0,1,3.88-2.53,7.18,7.18,0,0,1,1.31.11v3.56a7.55,7.55,0,0,0-1.63-.14c-2.7,0-3.64,1.63-3.64,3.85v9.45H1003Z" transform="translate(-50.73 -61.26)"/><path class="cls-2" d="M1021,681.74c4,0,6.35,2,6.35,5.06h-3.64c-.11-1-.79-2.21-2.79-2.21-1.6,0-2.64.75-2.64,2,0,1.64,2.39,1.93,4.29,2.27,3,.55,5.28,1.59,5.28,4.66,0,3.4-2.68,5.42-7.07,5.42s-6.75-2-6.75-5h4c.17,1.22,1.23,2.07,3,2.07,1.94,0,2.84-.93,2.84-2,0-1.61-2-1.85-4.11-2.27-3-.62-5.39-1.73-5.39-4.8C1014.4,683.27,1017.56,681.74,1021,681.74Z" transform="translate(-50.73 -61.26)"/><path class="cls-2" d="M1033.23,694.09a2.43,2.43,0,1,1-2.42,2.43A2.44,2.44,0,0,1,1033.23,694.09Z" transform="translate(-50.73 -61.26)"/><path class="cls-2" d="M1038.76,689.55c0-4.6,2.75-7.81,7.38-7.81,4.18,0,6.73,2.65,6.82,5.84h-3.79a2.92,2.92,0,0,0-2.85-2.56c-2.14,0-3.43,1.75-3.43,4.57v1.32c0,2.92,1.32,4.7,3.45,4.7a2.69,2.69,0,0,0,2.91-2.37H1053c-.34,3.7-3,5.67-6.92,5.67-4.58,0-7.36-3.16-7.36-8Z" transform="translate(-50.73 -61.26)"/><path class="cls-2" d="M1056.32,676.16h4.13v22.45h-4.13Z" transform="translate(-50.73 -61.26)"/><path class="cls-2" d="M1079.15,689.66v1.22c0,4.82-2.69,8-7.58,8s-7.59-3.21-7.59-8v-1.22c0-4.58,2.7-7.93,7.59-7.93S1079.15,685.08,1079.15,689.66Zm-11,0v1.28c0,2.61,1,4.76,3.43,4.76s3.43-2.14,3.43-4.76v-1.28c0-2.71-1-4.74-3.43-4.74S1068.14,687,1068.14,689.66Z" transform="translate(-50.73 -61.26)"/><path class="cls-2" d="M1097,698.61h-4v-2.42h-.19c-.52,1.3-2,2.67-4.78,2.67-3.39,0-5.67-2-5.67-5.87V682h4.11v9.86c0,2.74,1.54,3.49,3.17,3.49,1.84,0,3.25-1.21,3.25-3.54V682H1097Z" transform="translate(-50.73 -61.26)"/><path class="cls-2" d="M1111.53,684.45h.15v-8.29h4.13v22.45h-4v-2.56h-.17a5,5,0,0,1-4.78,2.76c-4,0-6.35-3-6.35-7.81v-1.39c0-4.73,2.4-7.8,6.35-7.8A5,5,0,0,1,1111.53,684.45Zm-6.85,5.3v1.14c0,3.11,1.46,4.64,3.47,4.64,2.17,0,3.56-1.61,3.56-4.62v-1.16c0-2.91-1.4-4.64-3.59-4.64C1106.14,685.11,1104.68,686.64,1104.68,689.75Z" transform="translate(-50.73 -61.26)"/><path class="cls-2" d="M1121.23,685.22h-2.37V682h2.37v-1.65c0-3.33,1.72-4.69,5.56-4.69a14.3,14.3,0,0,1,1.8.11v2.94a5.4,5.4,0,0,0-1-.07c-1.58,0-2.36.5-2.36,2.05V682h3.2v3.19h-3.12v13.39h-4.08Z" transform="translate(-50.73 -61.26)"/><path class="cls-2" d="M1132,676.16h4.12v22.45H1132Z" transform="translate(-50.73 -61.26)"/><path class="cls-2" d="M1144.87,698.86c-3.23,0-5.45-1.91-5.45-5s2.06-4.88,5.9-4.88h4v-1.5a2.41,2.41,0,0,0-2.73-2.57c-1.69,0-2.66.89-2.77,2.21H1140c.12-2.76,1.9-5.32,6.68-5.32,3.82,0,6.72,1.78,6.72,5.64v11.2h-3.89v-2h-.17C1148.71,697.81,1147.31,698.86,1144.87,698.86Zm4.5-5.69v-1.75h-3.16c-1.81,0-2.7.88-2.7,2.14a2.4,2.4,0,0,0,2.69,2.3C1148,695.86,1149.37,694.78,1149.37,693.17Z" transform="translate(-50.73 -61.26)"/><path class="cls-2" d="M1157.37,682h4.11v2.28h.17a4,4,0,0,1,3.88-2.53,7.18,7.18,0,0,1,1.31.11v3.56a7.49,7.49,0,0,0-1.63-.14c-2.7,0-3.64,1.63-3.64,3.85v9.45h-4.2Z" transform="translate(-50.73 -61.26)"/><path class="cls-2" d="M1168.65,691v-1.52c0-4.86,3-7.73,7.35-7.73,4.51,0,7.31,3.07,7.31,7.84v1.62h-10.63v.46c0,2.51,1.43,4.11,3.52,4.11a3,3,0,0,0,3.14-2.16h3.81c-.39,2.66-2.54,5.3-7,5.3S1168.65,696.06,1168.65,691Zm10.67-2.4v0c0-2.14-1.29-3.76-3.29-3.76s-3.35,1.64-3.35,3.76v0Z" transform="translate(-50.73 -61.26)"/><path class="cls-2" d="M1188.81,694.09a2.43,2.43,0,1,1-2.42,2.43A2.44,2.44,0,0,1,1188.81,694.09Z" transform="translate(-50.73 -61.26)"/><path class="cls-2" d="M1194.34,689.55c0-4.6,2.75-7.81,7.37-7.81,4.19,0,6.74,2.65,6.83,5.84h-3.79a2.93,2.93,0,0,0-2.85-2.56c-2.14,0-3.44,1.75-3.44,4.57v1.32c0,2.92,1.33,4.7,3.46,4.7a2.68,2.68,0,0,0,2.9-2.37h3.8c-.34,3.7-3,5.67-6.92,5.67-4.58,0-7.36-3.16-7.36-8Z" transform="translate(-50.73 -61.26)"/><path class="cls-2" d="M1226.29,689.66v1.22c0,4.82-2.68,8-7.58,8s-7.59-3.21-7.59-8v-1.22c0-4.58,2.7-7.93,7.59-7.93S1226.29,685.08,1226.29,689.66Zm-11,0v1.28c0,2.61,1,4.76,3.43,4.76s3.43-2.14,3.43-4.76v-1.28c0-2.71-1.05-4.74-3.43-4.74S1215.28,687,1215.28,689.66Z" transform="translate(-50.73 -61.26)"/><path class="cls-2" d="M1229.71,682h4v2.38h.22a4.43,4.43,0,0,1,4.35-2.64c2.54,0,4.08,1.14,4.64,2.84h.17c.55-1.41,2.27-2.84,5.05-2.84,3.42,0,5.4,2.2,5.4,5.51v11.33h-4.11V688.42c0-2.11-1.14-3.22-2.89-3.22s-2.93,1.25-2.93,3.38v10h-4v-10c0-2.39-1.24-3.38-2.91-3.38s-2.92,1-2.92,3.35v10.06h-4.1Z" transform="translate(-50.73 -61.26)"/><path class="cls-3" d="M1178.28,307.31H1056.06A21.31,21.31,0,0,1,1034.78,286V82.53a21.3,21.3,0,0,1,21.28-21.27h174.16a21.29,21.29,0,0,1,21.27,21.27V229.47a53.26,53.26,0,0,0-14.68-10.54V82.53a6.6,6.6,0,0,0-6.59-6.59H1056.06a6.6,6.6,0,0,0-6.6,6.59V286a6.61,6.61,0,0,0,6.6,6.6h110.32a53.34,53.34,0,0,0,4.91,7.34A55.14,55.14,0,0,0,1178.28,307.31Zm-98.76-71.88a3.67,3.67,0,0,0,0,7.34h72.23a3.67,3.67,0,1,0,0-7.34Zm118.07-64.53H1079.52a3.67,3.67,0,0,0,0,7.34h118.07a3.67,3.67,0,1,0,0-7.34Zm3.67,35.94a3.67,3.67,0,0,0-3.67-3.67H1079.52a3.67,3.67,0,0,0,0,7.34h118.07A3.68,3.68,0,0,0,1201.26,206.84Zm-121.74-92.77H1176a3.67,3.67,0,1,0,0-7.34h-96.44a3.67,3.67,0,0,0,0,7.34Zm118.07,24.56H1079.52a3.67,3.67,0,0,0,0,7.34h118.07a3.67,3.67,0,1,0,0-7.34Zm64,128.34a48.15,48.15,0,0,1-20.33,39.25v45.45l-28.6-23.84-27.13,21.27V306.22a48.81,48.81,0,0,1-12.86-13.59,48.15,48.15,0,0,1,71.53-62.69,48.83,48.83,0,0,1,7.33,7.67A47.92,47.92,0,0,1,1261.55,267Zm-10.06,11.34a39.79,39.79,0,0,0-7.33-36.52,40.14,40.14,0,0,0-7.35-6.91A39.75,39.75,0,0,0,1183,292.63c.8.94,1.64,1.85,2.52,2.71a40.42,40.42,0,0,0,5.63,4.63,39.83,39.83,0,0,0,60.37-21.66Zm-14.68-32.53a31.87,31.87,0,0,0-51.32,37,32.22,32.22,0,0,0,8.49,9.8,31.54,31.54,0,0,0,40.87-1.92l0,0a32.35,32.35,0,0,0,6.33-8,32,32,0,0,0,2.94-7.27,31.23,31.23,0,0,0,1.1-8.06,32.13,32.13,0,0,0-8.45-21.55Z" transform="translate(-50.73 -61.26)"/><path class="cls-4" d="M1471.87,499.89v-9.15a8.9,8.9,0,0,0-8.9-8.89h-7.61a8.9,8.9,0,0,0-8.89,8.89v9.15a17.46,17.46,0,1,0,25.4,0Zm-22.72-9.15a6.21,6.21,0,0,1,6.21-6.2H1463a6.21,6.21,0,0,1,6.21,6.2v6.81a17.45,17.45,0,0,0-20,0Zm10,36a14.89,14.89,0,0,1-12.42-23.12,15.52,15.52,0,0,1,2.4-2.78,14.81,14.81,0,0,1,20,0,15.1,15.1,0,0,1,2.27,2.58,14.89,14.89,0,0,1-12.28,23.32Zm0-27.47a12.57,12.57,0,1,0,12.57,12.57A12.58,12.58,0,0,0,1459.17,499.28Zm1.66,14.41v4.7h-2.14v-4.7a3.51,3.51,0,1,1,2.14,0Z" transform="translate(-50.73 -61.26)"/><rect class="cls-1" x="857.07" y="411.32" width="450.25" height="65.29" rx="12" ry="12"/><path class="cls-4" d="M970.2,499.89v-9.15a8.9,8.9,0,0,0-8.89-8.89h-7.62a8.9,8.9,0,0,0-8.89,8.89v9.15a17.47,17.47,0,1,0,25.4,0Zm-22.71-9.15a6.21,6.21,0,0,1,6.2-6.2h7.62a6.21,6.21,0,0,1,6.2,6.2v6.81a17.43,17.43,0,0,0-20,0Zm10,36a14.89,14.89,0,0,1-12.42-23.12,15.58,15.58,0,0,1,2.41-2.78,14.89,14.89,0,1,1,10,25.9Zm0-27.47a12.57,12.57,0,1,0,12.57,12.57A12.59,12.59,0,0,0,957.5,499.28Zm1.66,14.41v4.7H957v-4.7a3.51,3.51,0,1,1,2.14,0Z" transform="translate(-50.73 -61.26)"/><rect class="cls-1" x="370.15" y="411.68" width="429.07" height="65.29" rx="12" ry="12"/><path class="cls-4" d="M491,500.16V491a8.91,8.91,0,0,0-8.9-8.9h-7.61a8.9,8.9,0,0,0-8.89,8.9v9.14a17.46,17.46,0,1,0,25.4,0ZM468.31,491a6.22,6.22,0,0,1,6.21-6.21h7.61a6.21,6.21,0,0,1,6.21,6.21v6.81a17.41,17.41,0,0,0-20,0Zm10,36a14.9,14.9,0,1,1,10-25.9,15.1,15.1,0,0,1,2.27,2.58,14.77,14.77,0,0,1,2.62,8.42A14.92,14.92,0,0,1,478.33,527Zm0-27.48a12.58,12.58,0,1,0,12.57,12.58A12.59,12.59,0,0,0,478.33,499.55ZM480,514v4.71h-2.14V514a3.51,3.51,0,1,1,2.14,0Z" transform="translate(-50.73 -61.26)"/><path class="cls-4" d="M114.14,682.76v-9.14a8.9,8.9,0,0,0-8.89-8.9H97.64a8.91,8.91,0,0,0-8.9,8.9v9.15a17.47,17.47,0,1,0,25.4,0Zm-22.71-9.14a6.22,6.22,0,0,1,6.21-6.21h7.61a6.22,6.22,0,0,1,6.21,6.21v6.81a17.41,17.41,0,0,0-20,0Zm10,36a14.89,14.89,0,1,1,14.9-14.9A14.92,14.92,0,0,1,101.44,709.63Zm0-27.47A12.57,12.57,0,1,0,114,694.73,12.59,12.59,0,0,0,101.44,682.16Zm1.67,14.41v4.7H101v-4.7a3.51,3.51,0,1,1,2.14,0Z" transform="translate(-50.73 -61.26)"/><rect class="cls-1" x="733.39" y="593.46" width="495.14" height="65.29" rx="12" ry="12"/><path class="cls-4" d="M851.65,682v-9.15a8.9,8.9,0,0,0-8.9-8.89h-7.61a8.9,8.9,0,0,0-8.89,8.89V682a17.46,17.46,0,1,0,25.4,0Zm-22.71-9.15a6.21,6.21,0,0,1,6.2-6.2h7.61a6.21,6.21,0,0,1,6.21,6.2v6.82a17.39,17.39,0,0,0-20,0Zm10,36a14.89,14.89,0,0,1-12.42-23.12,15.58,15.58,0,0,1,2.41-2.78,14.89,14.89,0,1,1,10,25.9Zm0-27.47A12.58,12.58,0,1,0,851.52,694,12.59,12.59,0,0,0,839,681.43Zm1.66,14.41v4.7h-2.14v-4.7a3.51,3.51,0,1,1,2.14,0Z" transform="translate(-50.73 -61.26)"/><rect class="cls-1" x="398.59" y="719.83" width="412.33" height="65.29" rx="12" ry="12"/><path class="cls-4" d="M515.22,808v-9.15a8.9,8.9,0,0,0-8.9-8.89h-7.61a8.9,8.9,0,0,0-8.89,8.89V808a17.46,17.46,0,1,0,25.4,0Zm-22.72-9.15a6.21,6.21,0,0,1,6.21-6.2h7.61a6.21,6.21,0,0,1,6.21,6.2v6.82a17.41,17.41,0,0,0-20,0Zm10,36a14.89,14.89,0,0,1-12.42-23.12,15.52,15.52,0,0,1,2.4-2.78,14.81,14.81,0,0,1,20,0,15.1,15.1,0,0,1,2.27,2.58,14.89,14.89,0,0,1-12.28,23.32Zm0-27.47A12.57,12.57,0,1,0,515.09,820,12.59,12.59,0,0,0,502.52,807.43Zm1.66,14.41v4.7H502v-4.7a3.51,3.51,0,1,1,2.14,0Z" transform="translate(-50.73 -61.26)"/><rect class="cls-1" x="1358.65" y="411.68" width="450.25" height="65.29" rx="12" ry="12"/></svg>